<?xml version="1.0" encoding="UTF-8"?>
<svg xmlns="http://www.w3.org/2000/svg" xmlns:xlink="http://www.w3.org/1999/xlink" version="1.1" id="Layer_1" x="0px" y="0px" viewBox="0 0 24 24" style="enable-background:new 0 0 24 24;" xml:space="preserve">
<g>
	<path style="fill:#303C42;" d="M22.87,0.164C22.775,0.06,22.641,0,22.5,0h-21C1.359,0,1.225,0.06,1.13,0.164   C1.035,0.269,0.989,0.408,1.002,0.548l2,20.5c0.02,0.203,0.161,0.374,0.356,0.431l8.5,2.5C11.905,23.993,11.953,24,12,24   s0.095-0.007,0.141-0.021l8.5-2.5c0.196-0.057,0.337-0.228,0.356-0.431l2-20.5C23.011,0.408,22.965,0.269,22.87,0.164z"/>
	<polygon style="fill:#FFA726;" points="20.035,20.616 12,22.979 3.965,20.616 2.051,1 21.949,1  "/>
	<polygon style="opacity:0.2;fill:#FFFFFF;" points="3,1 2.051,1 3.965,20.616 12,22.979 4.731,20.616  "/>
	<polygon style="opacity:0.1;" points="21,1 19.269,20.616 12,22.979 20.035,20.616 21.949,1  "/>
	<path style="fill:#303C42;" d="M6.689,13h7.056l-0.218,2.233L12,15.683l-1.527-0.449l-0.125-1.282   c-0.025-0.256-0.24-0.452-0.498-0.452H6.836c-0.141,0-0.275,0.06-0.37,0.164c-0.095,0.104-0.141,0.244-0.127,0.384l0.383,3.924   c0.02,0.203,0.161,0.374,0.356,0.431l4.781,1.406c0.046,0.014,0.094,0.021,0.141,0.021s0.095-0.007,0.141-0.021l4.781-1.406   c0.196-0.057,0.337-0.228,0.356-0.431l0.773-7.924c0.014-0.14-0.032-0.28-0.127-0.384C17.83,9.56,17.695,9.5,17.554,9.5H9.914   L9.767,8h8.031c0.257,0,0.473-0.195,0.498-0.452l0.292-3c0.014-0.14-0.033-0.28-0.127-0.384S18.232,4,18.091,4H5.909   c-0.141,0-0.275,0.06-0.37,0.164C5.444,4.269,5.398,4.408,5.412,4.548l0.78,8C6.217,12.805,6.432,13,6.689,13z"/>
	<path style="fill:#FFFFFF;" d="M17.54,5l-0.195,2H9.216C9.075,7,8.94,7.06,8.846,7.164C8.75,7.269,8.705,7.408,8.718,7.549   l0.244,2.5C8.987,10.305,9.203,10.5,9.46,10.5h7.543l-0.687,7.04L12,18.81l-4.316-1.27L7.387,14.5h2.009l0.114,1.166   c0.02,0.203,0.161,0.374,0.356,0.431l1.992,0.586c0.092,0.027,0.19,0.027,0.282,0l1.992-0.586c0.196-0.057,0.337-0.228,0.356-0.431   l0.304-3.118c0.014-0.14-0.032-0.28-0.127-0.384C14.572,12.06,14.438,12,14.296,12H7.143L6.46,5H17.54z"/>
	<linearGradient id="SVGID_1_" gradientUnits="userSpaceOnUse" x1="6.8129" y1="18.2032" x2="6.8251" y2="18.2154">
		<stop offset="0" style="stop-color:#000000;stop-opacity:0.1"/>
		<stop offset="1" style="stop-color:#000000;stop-opacity:0"/>
	</linearGradient>
	<path style="fill:url(#SVGID_1_);" d="M6.816,18.202l-0.006,0.003l0.012,0.012C6.82,18.213,6.82,18.207,6.816,18.202z"/>
	<linearGradient id="SVGID_2_" gradientUnits="userSpaceOnUse" x1="8.2658" y1="11.1314" x2="12.9476" y2="15.8132">
		<stop offset="0" style="stop-color:#000000;stop-opacity:0.1"/>
		<stop offset="1" style="stop-color:#000000;stop-opacity:0"/>
	</linearGradient>
	<path style="fill:url(#SVGID_2_);" d="M10.348,13.952l0.125,1.282L12,15.683l1.527-0.449L13.745,13H6.689   c-0.084,0-0.159-0.026-0.229-0.063l0,0L7.024,13.5H9.85C10.107,13.5,10.323,13.695,10.348,13.952z"/>
	<linearGradient id="SVGID_3_" gradientUnits="userSpaceOnUse" x1="9.6091" y1="8.158" x2="21.0509" y2="19.5999">
		<stop offset="0" style="stop-color:#000000;stop-opacity:0.1"/>
		<stop offset="1" style="stop-color:#000000;stop-opacity:0"/>
	</linearGradient>
	<path style="fill:url(#SVGID_3_);" d="M18.461,4.164c0.095,0.104,0.141,0.244,0.127,0.384l-0.292,3C18.271,7.805,18.056,8,17.798,8   H9.767l0.146,1.5h7.641c0.141,0,0.275,0.06,0.37,0.164c0.095,0.104,0.141,0.244,0.127,0.384l-0.773,7.924   c-0.02,0.203-0.161,0.374-0.356,0.431l-4.781,1.406c-0.046,0.014-0.094,0.021-0.141,0.021s-0.095-0.007-0.141-0.021l-4.781-1.406   c-0.081-0.023-0.144-0.076-0.201-0.132l4.534,4.534L12,22.979l8.035-2.363l1.322-13.555L18.461,4.164z"/>
	<linearGradient id="SVGID_4_" gradientUnits="userSpaceOnUse" x1="-0.8252" y1="4.3032" x2="23.5396" y2="15.6647">
		<stop offset="0" style="stop-color:#FFFFFF;stop-opacity:0.2"/>
		<stop offset="1" style="stop-color:#FFFFFF;stop-opacity:0"/>
	</linearGradient>
	<path style="fill:url(#SVGID_4_);" d="M22.87,0.164C22.775,0.06,22.641,0,22.5,0h-21C1.359,0,1.225,0.06,1.13,0.164   C1.035,0.269,0.989,0.408,1.002,0.548l2,20.5c0.02,0.203,0.161,0.374,0.356,0.431l8.5,2.5C11.905,23.993,11.953,24,12,24   s0.095-0.007,0.141-0.021l8.5-2.5c0.196-0.057,0.337-0.228,0.356-0.431l2-20.5C23.011,0.408,22.965,0.269,22.87,0.164z"/>
</g>
<g>
</g>
<g>
</g>
<g>
</g>
<g>
</g>
<g>
</g>
<g>
</g>
<g>
</g>
<g>
</g>
<g>
</g>
<g>
</g>
<g>
</g>
<g>
</g>
<g>
</g>
<g>
</g>
<g>
</g>

	<metadata>
		<rdf:RDF xmlns:rdf="http://www.w3.org/1999/02/22-rdf-syntax-ns#" xmlns:rdfs="http://www.w3.org/2000/01/rdf-schema#" xmlns:dc="http://purl.org/dc/elements/1.1/">
			<rdf:Description about="https://iconscout.com/legal#licenses" dc:title="html; html5; web; programing; developer" dc:description="html; html5; web; programing; developer" dc:publisher="Iconscout" dc:date="2017-03-22" dc:format="image/svg+xml" dc:language="en">
				<dc:creator>
					<rdf:Bag>
						<rdf:li>Alpár - Etele Méder</rdf:li>
					</rdf:Bag>
				</dc:creator>
			</rdf:Description>
		</rdf:RDF>
    </metadata></svg>
