<?xml version="1.0" encoding="UTF-8" standalone="no"?>
<svg xmlns:dc="http://purl.org/dc/elements/1.1/" xmlns:cc="http://creativecommons.org/ns#" xmlns:rdf="http://www.w3.org/1999/02/22-rdf-syntax-ns#" xmlns:svg="http://www.w3.org/2000/svg" xmlns="http://www.w3.org/2000/svg" xmlns:sodipodi="http://sodipodi.sourceforge.net/DTD/sodipodi-0.dtd" xmlns:inkscape="http://www.inkscape.org/namespaces/inkscape" width="48" height="48" viewBox="0 0 48 48.000001" id="svg2" version="1.1" inkscape:version="0.91 r13725" sodipodi:docname="mortarboard-graduation-hat-college-degree-school-graduate.svg">
  <defs id="defs4">
    <pattern y="0" x="0" height="6" width="6" patternUnits="userSpaceOnUse" id="EMFhbasepattern"/>
  </defs>
  <sodipodi:namedview id="base" pagecolor="#ffffff" bordercolor="#666666" borderopacity="1.0" inkscape:pageopacity="0.0" inkscape:pageshadow="2" inkscape:zoom="7.919596" inkscape:cx="-9.6314722" inkscape:cy="15.708706" inkscape:document-units="px" inkscape:current-layer="layer1" showgrid="false" units="px" inkscape:window-width="1366" inkscape:window-height="716" inkscape:window-x="-8" inkscape:window-y="-8" inkscape:window-maximized="1"/>
  
  <g inkscape:label="Layer 1" inkscape:groupmode="layer" id="layer1" transform="translate(0,-1004.3622)">
    <g transform="translate(-2737.6153,-2174.961)" style="display:inline" id="g22823">
      <path inkscape:connector-curvature="0" id="path20598" d="m 2785.6153,3203.3232 a 24,24 0 0 0 -24,-24 24,24 0 0 0 -24,24 24,24 0 0 0 24,24 24,24 0 0 0 24,-24 z" style="opacity:1;fill:#04dbdd;fill-opacity:1;stroke:none;stroke-width:0.26458335;stroke-linecap:round;stroke-linejoin:round;stroke-miterlimit:4;stroke-dasharray:none;stroke-dashoffset:0;stroke-opacity:1"/>
      <g transform="translate(225.11534,2209.711)" id="g21325" style="display:inline;fill:#ffffff">
        <g transform="translate(2520.4997,-46.4999)" style="display:inline;fill:#ffffff" id="g21323">
          <path inkscape:connector-curvature="0" id="path21317" transform="translate(-2520.5427,1066.9773)" d="m 2536.543,-36.615234 -13.5,6.5 13.5,6.5 13.5,-6.5 z m 0,5.25 a 1.2499985,1.2499985 0 0 1 1.25,1.25 1.2499985,1.2499985 0 0 1 -1.25,1.25 1.2499985,1.2499985 0 0 1 -1.25,-1.25 1.2499985,1.2499985 0 0 1 1.25,-1.25 z" style="display:inline;opacity:1;fill:#ffffff;fill-opacity:1;stroke:none;stroke-width:0.99998599;stroke-linecap:round;stroke-linejoin:round;stroke-miterlimit:4;stroke-dasharray:none;stroke-dashoffset:0;stroke-opacity:1"/>
          <path inkscape:connector-curvature="0" id="path21319" d="m 9.0003,1040.9636 0,6.6485 7,2.25 7,-2.25 0,-6.6485 -7,3.3711 z" style="fill:#ffffff;fill-rule:evenodd;stroke:none;stroke-width:1.0000031;stroke-linecap:round;stroke-linejoin:round;stroke-miterlimit:4;stroke-dasharray:none;stroke-opacity:1"/>
          <path inkscape:connector-curvature="0" id="path21321" transform="translate(-2520.4997,1066.8621)" d="M 2525.7422,-28.005859 A 0.50005155,0.50005155 0 0 0 2525.25,-27.5 l 0,3.359375 c -0.438,0.192162 -0.7464,0.622104 -0.75,1.130859 l 0,3.759766 2.5,0 0,-3.75 c 0,-0.512269 -0.3085,-0.951618 -0.75,-1.144531 l 0,-3.355469 a 0.50005155,0.50005155 0 0 0 -0.5078,-0.505859 z" style="color:#000000;font-style:normal;font-variant:normal;font-weight:normal;font-stretch:normal;font-size:medium;line-height:normal;font-family:sans-serif;text-indent:0;text-align:start;text-decoration:none;text-decoration-line:none;text-decoration-style:solid;text-decoration-color:#000000;letter-spacing:normal;word-spacing:normal;text-transform:none;direction:ltr;writing-mode:lr-tb;baseline-shift:baseline;text-anchor:start;white-space:normal;clip-rule:nonzero;display:inline;overflow:visible;visibility:visible;opacity:1;isolation:auto;mix-blend-mode:normal;color-interpolation:sRGB;color-interpolation-filters:linearRGB;solid-color:#000000;solid-opacity:1;fill:#ffffff;fill-opacity:1;fill-rule:evenodd;stroke:none;stroke-width:1.0000031;stroke-linecap:round;stroke-linejoin:round;stroke-miterlimit:4;stroke-dasharray:none;stroke-dashoffset:0;stroke-opacity:1;color-rendering:auto;image-rendering:auto;shape-rendering:auto;text-rendering:auto;enable-background:accumulate"/>
        </g>
      </g>
    </g>
  </g>

	<metadata>
		<rdf:RDF xmlns:rdf="http://www.w3.org/1999/02/22-rdf-syntax-ns#" xmlns:rdfs="http://www.w3.org/2000/01/rdf-schema#" xmlns:dc="http://purl.org/dc/elements/1.1/">
			<rdf:Description about="https://iconscout.com/legal#licenses" dc:title="mortarboard-graduation-hat-college-degree-school-graduate" dc:description="mortarboard-graduation-hat-college-degree-school-graduate" dc:publisher="Iconscout" dc:date="2017-04-26" dc:format="image/svg+xml" dc:language="en">
				<dc:creator>
					<rdf:Bag>
						<rdf:li>Vignesh Oviyan</rdf:li>
					</rdf:Bag>
				</dc:creator>
			</rdf:Description>
		</rdf:RDF>
    </metadata></svg>
