<svg xmlns="http://www.w3.org/2000/svg" width="25" height="25" viewBox="0 0 25 25"><g transform="translate(0 -1027.362)"><g fill="#fff" transform="translate(3.991 -5.503)"><g transform="translate(-28.536 1016.956)"><circle cx="37.045" cy="28.409" r="12.5" fill="#50b748" fill-rule="evenodd"/></g><path fill="#10a711" style="line-height:normal;text-indent:0;text-align:start;text-decoration-line:none;text-decoration-style:solid;text-decoration-color:#000;text-transform:none;block-progression:tb;isolation:auto;mix-blend-mode:normal" d="M 9.6582031 24.658203 A 12.5 12.5 0 0 0 10.375 24.818359 A 12.5 12.5 0 0 0 11.615234 24.96875 A 12.5 12.5 0 0 0 12.5 25 A 12.5 12.5 0 0 0 13.748047 24.9375 A 12.5 12.5 0 0 0 14.982422 24.75 A 12.5 12.5 0 0 0 16.193359 24.441406 A 12.5 12.5 0 0 0 17.367188 24.013672 A 12.5 12.5 0 0 0 18.492188 23.470703 A 12.5 12.5 0 0 0 19.558594 22.816406 A 12.5 12.5 0 0 0 20.552734 22.060547 A 12.5 12.5 0 0 0 21.466797 21.208984 A 12.5 12.5 0 0 0 22.291016 20.269531 A 12.5 12.5 0 0 0 23.017578 19.253906 A 12.5 12.5 0 0 0 23.640625 18.169922 A 12.5 12.5 0 0 0 24.150391 17.029297 A 12.5 12.5 0 0 0 24.544922 15.84375 A 12.5 12.5 0 0 0 24.818359 14.625 A 12.5 12.5 0 0 0 24.96875 13.384766 A 12.5 12.5 0 0 0 25 12.5 A 12.5 12.5 0 0 0 24.9375 11.251953 A 12.5 12.5 0 0 0 24.75 10.017578 A 12.5 12.5 0 0 0 24.658203 9.6582031 L 21 6 L 5 6 L 5 6.5 L 5 9 L 5 10 L 5 20 L 9.6582031 24.658203 z " color="#000" font-family="sans-serif" font-weight="400" transform="translate(-3.991 1032.865)" white-space="normal"/><path style="line-height:normal;text-indent:0;text-align:start;text-decoration-line:none;text-decoration-style:solid;text-decoration-color:#000;text-transform:none;block-progression:tb;isolation:auto;mix-blend-mode:normal" d="M 0,1 0,1.5 0,4 0,5 0,15 16,15 16,5 16,4 16,1 0,1 Z M 1,2 15,2 15,4 1,4 1,2 Z m 0,3 14,0 0,9 -14,0 0,-9 z m 5.3105469,2.0214844 -2.3886719,2.4765625 2.3886719,2.4765621 0.71875,-0.693359 -1.71875,-1.7832031 1.71875,-1.7832031 -0.71875,-0.6933594 z m 3.3808593,0 L 8.9707031,7.7148438 10.689453,9.4980469 8.9707031,11.28125 9.6914062,11.974609 12.078125,9.4980469 9.6914062,7.0214844 Z" color="#000" font-family="sans-serif" font-weight="400" overflow="visible" transform="translate(1.009 1037.865)" white-space="normal"/></g></g></svg>